<svg width="452" height="492" viewBox="0 0 452 492" fill="none" xmlns="http://www.w3.org/2000/svg">
<ellipse cx="229.869" cy="443.607" rx="165.344" ry="48.3934" fill="#6DC56D"/>
<path d="M96.787 76.6229L241.967 32.2622H302.459L342.787 76.6229L371.016 104.852L391.18 153.246L419.41 181.475V229.869L391.18 274.229L302.459 334.721H213.738L116.951 306.492L36.2952 274.229V197.606L68.5575 153.246L96.787 76.6229Z" fill="#6DC56D"/>
<path d="M451.672 225.836C451.672 195.1 434.554 166.757 405.805 144.038C405.76 144.016 405.715 144.016 405.692 143.97C397.517 63.3018 320.168 0 225.836 0C131.504 0 54.1555 63.3018 45.9802 143.97C45.9576 144.016 45.9125 144.016 45.8673 144.038C17.1184 166.757 0 195.1 0 225.836C0 296.116 89.1375 353.863 203.252 360.66V383.921C203.252 406.505 162.128 427.079 162.128 427.079C161.033 427.65 160.181 428.597 159.728 429.747C159.276 430.896 159.254 432.17 159.666 433.334C159.666 433.334 166.554 451.672 180.669 451.672C194.784 451.672 206.053 440.38 234.282 440.38C262.512 440.38 289.364 450.136 289.364 450.136C290.639 450.527 291.994 450.58 293.296 450.291C294.598 450.002 295.803 449.381 296.794 448.488L312.986 432.295C314.748 430.534 314.296 428.388 311.947 427.508C311.947 427.508 271.026 412.151 271.026 383.921V358.605C374.097 346.071 451.672 291.396 451.672 225.836ZM45.1672 225.836C45.1672 202.823 62.5114 181.911 90.8313 165.967C90.6054 163.347 90.3344 160.728 90.3344 158.085C90.3344 95.7093 151.017 45.1672 225.836 45.1672C300.656 45.1672 361.338 95.7093 361.338 158.085C361.338 160.728 361.067 163.347 360.863 165.967C389.161 181.911 406.505 202.823 406.505 225.836C406.505 267.932 348.894 303.162 271.026 313.212V298.126C271.177 295.28 272.338 292.582 274.3 290.516L315.696 251.536C317.661 249.469 318.829 246.772 318.993 243.926V224.707C318.993 222.223 317.232 221.206 315.109 222.471L274.933 246.116C272.765 247.381 271.026 246.387 271.026 243.88V162.602C271.026 160.118 269.106 158.718 266.735 159.508L207.543 179.246C206.333 179.717 205.286 180.529 204.528 181.583C203.771 182.637 203.335 183.889 203.275 185.186V243.903C203.275 246.387 201.491 247.471 199.278 246.319L153.614 222.29C152.444 221.739 151.137 221.548 149.858 221.741C148.58 221.934 147.387 222.503 146.432 223.374L138.709 231.098C138.293 231.503 137.967 231.991 137.75 232.529C137.534 233.068 137.432 233.645 137.451 234.226C137.47 234.806 137.61 235.375 137.861 235.898C138.113 236.421 138.471 236.886 138.912 237.263L199.887 290.583C201.762 292.232 203.275 295.597 203.275 298.081V315.357C114.183 309.824 45.1672 271.907 45.1672 225.836Z" fill="#2E5E49"/>
</svg>
