<svg width="416" height="495" viewBox="0 0 416 495" fill="none" xmlns="http://www.w3.org/2000/svg">
<path d="M214 198V108" stroke="#52A155" stroke-width="48" stroke-linecap="round"/>
<path d="M159.079 112.127L108 24.6963C153.268 30.277 239.503 54.5632 222.295 107.062C205.087 159.561 172.981 132.313 159.079 112.127Z" fill="#52A155"/>
<path d="M265.675 112.127L316.754 24.6963C271.486 30.277 185.251 54.5632 202.459 107.062C219.667 159.561 251.773 132.313 265.675 112.127Z" fill="#52A155"/>
<path d="M146 50C186 73 206 94 206 102" stroke="#366635" stroke-width="2" stroke-linecap="round"/>
<path d="M282 45C242 68 221 92 221 100" stroke="#366635" stroke-width="2" stroke-linecap="round"/>
<path d="M168 427V475C168 479.418 164.418 483 160 483H144" stroke="black" stroke-width="24" stroke-linecap="round"/>
<path d="M240 427V475C240 479.418 243.582 483 248 483H264" stroke="black" stroke-width="24" stroke-linecap="round"/>
<path d="M84.4713 434.208L59.7713 282.208C57.7943 270.042 67.1864 259 79.5123 259H344.012C356.498 259 365.932 270.314 363.686 282.597L335.899 434.597C334.162 444.098 325.883 451 316.225 451H104.212C94.4049 451 86.0444 443.888 84.4713 434.208Z" fill="url(#paint0_linear_54_6298)"/>
<mask id="mask0_54_6298" style="mask-type:alpha" maskUnits="userSpaceOnUse" x="200" y="363" width="48" height="40">
<path d="M224 399C229.2 399 234.062 397.424 237.714 394.685C241.367 391.945 244 387.855 244 383C244 378.145 241.367 374.055 237.714 371.315C234.062 368.576 229.2 367 224 367C218.8 367 213.938 368.576 210.286 371.315C206.633 374.055 204 378.145 204 383C204 387.855 206.633 391.945 210.286 394.685C213.938 397.424 218.8 399 224 399Z" stroke="black" stroke-width="8"/>
</mask>
<g mask="url(#mask0_54_6298)">
<rect x="196.724" y="382.894" width="57.9048" height="21.8761" fill="black"/>
</g>
<ellipse cx="176" cy="335" rx="16" ry="28" fill="black"/>
<ellipse cx="264" cy="335" rx="16" ry="28" fill="black"/>
<ellipse cx="148" cy="371" rx="12" ry="8" fill="#FFC0CB"/>
<ellipse cx="292" cy="371" rx="12" ry="8" fill="#FFC0CB"/>
<path d="M20.5197 271.339L5.40858 203.339C2.63296 190.848 12.1373 179 24.9323 179H390.154C403.237 179 412.797 191.355 409.514 204.019L391.884 272.019C389.597 280.84 381.637 287 372.524 287H40.0434C30.6695 287 22.5532 280.489 20.5197 271.339Z" fill="#986255"/>
<defs>
<linearGradient id="paint0_linear_54_6298" x1="212" y1="259" x2="212" y2="451" gradientUnits="userSpaceOnUse">
<stop stop-color="#C6A598"/>
<stop offset="1" stop-color="#BE8D78"/>
</linearGradient>
</defs>
</svg>
