<svg width="208" height="346" viewBox="0 0 208 346" fill="none" xmlns="http://www.w3.org/2000/svg">
<path d="M107.117 117.008V72.0076" stroke="#52A155" stroke-width="24" stroke-linecap="round"/>
<path d="M54.8885 141.133C71.0859 94.5864 136.914 94.5864 153.111 141.133L170.025 189.738C181.784 223.531 156.694 258.827 120.913 258.827H87.0867C51.3061 258.827 26.2159 223.531 37.9752 189.738L54.8885 141.133Z" fill="#986255"/>
<mask id="mask0_54_6224" style="mask-type:alpha" maskUnits="userSpaceOnUse" x="89" y="193" width="37" height="31">
<path d="M107.117 220.008C111.017 220.008 114.664 218.826 117.402 216.772C120.142 214.717 122.117 211.649 122.117 208.008C122.117 204.366 120.142 201.298 117.402 199.244C114.664 197.189 111.017 196.008 107.117 196.008C103.217 196.008 99.5708 197.189 96.8319 199.244C94.0921 201.298 92.1172 204.366 92.1172 208.008C92.1172 211.649 94.0921 214.717 96.8319 216.772C99.5708 218.826 103.217 220.008 107.117 220.008Z" stroke="black" stroke-width="6"/>
</mask>
<g mask="url(#mask0_54_6224)">
<rect x="86.6602" y="207.928" width="43.4286" height="16.4071" fill="black"/>
</g>
<ellipse cx="71.1172" cy="172.008" rx="12" ry="21" fill="black"/>
<ellipse cx="137.117" cy="172.008" rx="12" ry="21" fill="black"/>
<ellipse cx="50.1172" cy="199.008" rx="9" ry="6" fill="#FFC0CB"/>
<ellipse cx="158.117" cy="199.008" rx="9" ry="6" fill="#FFC0CB"/>
<path d="M79.6566 74.071L54.1172 30.3557C76.7513 33.1461 119.869 45.2892 111.265 71.5385C102.661 97.7879 86.6077 84.1641 79.6566 74.071Z" fill="#52A155"/>
<path d="M132.955 74.071L158.494 30.3557C135.86 33.1461 92.7428 45.2892 101.347 71.5385C109.95 97.7879 126.004 84.1641 132.955 74.071Z" fill="#52A155"/>
<path d="M79.6566 74.071L54.1172 30.3557C76.7513 33.1461 119.869 45.2892 111.265 71.5385C102.661 97.7879 86.6077 84.1641 79.6566 74.071Z" fill="#52A155"/>
<path d="M132.955 74.071L158.494 30.3557C135.86 33.1461 92.7428 45.2892 101.347 71.5385C109.95 97.7879 126.004 84.1641 132.955 74.071Z" fill="#52A155"/>
<path d="M73.1172 43.0076C93.1172 54.5076 103.117 65.0076 103.117 69.0076" stroke="#366635" stroke-linecap="round"/>
<path d="M141.117 40.5076C121.117 52.0076 110.617 64.0076 110.617 68.0076" stroke="#366635" stroke-linecap="round"/>
</svg>
