<svg width="717" height="478" viewBox="0 0 717 478" fill="none" xmlns="http://www.w3.org/2000/svg">
<path d="M214 198V108" stroke="#52A155" stroke-width="48" stroke-linecap="round"/>
<path d="M159.079 112.127L108 24.6963C153.268 30.277 239.503 54.5632 222.295 107.062C205.087 159.561 172.981 132.313 159.079 112.127Z" fill="#52A155"/>
<path d="M265.675 112.127L316.754 24.6963C271.486 30.277 185.251 54.5632 202.459 107.062C219.667 159.561 251.773 132.313 265.675 112.127Z" fill="#52A155"/>
<path d="M146 50C186 73 206 94 206 102" stroke="#366635" stroke-width="2" stroke-linecap="round"/>
<path d="M282 45C242 68 221 92 221 100" stroke="#366635" stroke-width="2" stroke-linecap="round"/>
<path d="M84.4713 434.208L59.7713 282.208C57.7943 270.042 67.1864 259 79.5123 259H344.012C356.498 259 365.932 270.314 363.686 282.597L335.899 434.597C334.162 444.098 325.883 451 316.225 451H104.212C94.4049 451 86.0444 443.888 84.4713 434.208Z" fill="url(#paint0_linear_100_3)"/>
<mask id="mask0_100_3" style="mask-type:alpha" maskUnits="userSpaceOnUse" x="200" y="363" width="48" height="40">
<path d="M224 399C229.2 399 234.062 397.424 237.714 394.685C241.367 391.945 244 387.855 244 383C244 378.145 241.367 374.055 237.714 371.315C234.062 368.576 229.2 367 224 367C218.8 367 213.938 368.576 210.286 371.315C206.633 374.055 204 378.145 204 383C204 387.855 206.633 391.945 210.286 394.685C213.938 397.424 218.8 399 224 399Z" stroke="black" stroke-width="8"/>
</mask>
<g mask="url(#mask0_100_3)">
<rect x="196.724" y="382.894" width="57.9048" height="21.8761" fill="black"/>
</g>
<path d="M192 335C192 350.464 184.837 363 176 363C167.163 363 160 350.464 160 335C160 319.536 167.163 354 176 354C184.837 354 192 319.536 192 335Z" fill="black"/>
<path d="M280 334.991C280 350.455 272.837 362.991 264 362.991C255.163 362.991 248 350.455 248 334.991C248 319.527 255.163 353.991 264 353.991C272.837 353.991 280 319.527 280 334.991Z" fill="black"/>
<ellipse cx="148" cy="371" rx="12" ry="8" fill="#FFC0CB"/>
<ellipse cx="292" cy="371" rx="12" ry="8" fill="#FFC0CB"/>
<path d="M20.5197 271.339L5.40858 203.339C2.63296 190.848 12.1373 179 24.9323 179H390.154C403.237 179 412.797 191.355 409.514 204.019L391.884 272.019C389.597 280.84 381.637 287 372.524 287H40.0434C30.6695 287 22.5532 280.489 20.5197 271.339Z" fill="#986255"/>
<path d="M293 443.477L335.953 464.902C339.907 466.874 344.711 465.267 346.683 461.314L353.824 446.996" stroke="black" stroke-width="24" stroke-linecap="round"/>
<path d="M145 443.477L187.955 464.899C191.909 466.871 196.713 465.264 198.684 461.31L205.825 446.992" stroke="black" stroke-width="24" stroke-linecap="round"/>
<path d="M506.324 243.683L485.198 261.449L485.678 217.275C485.678 216.795 485.198 215.834 485.198 215.354L475.594 204.311C474.634 202.87 472.714 202.87 471.273 203.831L430.46 238.402C429.019 239.362 428.539 241.283 429.5 242.723L439.103 253.767C440.063 255.207 441.984 255.207 443.424 254.247L462.15 238.402L461.67 284.016C461.67 284.497 462.15 285.457 462.15 285.937L470.793 296.5C471.753 297.941 473.674 297.941 475.114 296.981L518.808 260.489C520.249 259.529 520.249 257.608 519.288 256.167L510.166 244.164C509.205 243.203 507.285 242.723 506.324 243.683ZM592.272 160.137L561.062 177.902L571.625 122.204C571.625 121.244 571.625 120.284 571.145 119.804L561.542 103.478C560.582 101.558 558.181 101.078 556.26 102.038L496.721 136.609C494.801 137.569 494.32 139.97 495.281 141.891L504.404 157.736C505.364 159.656 507.765 160.137 509.685 159.176L537.054 143.331L526.491 200.95C526.491 201.91 526.491 202.87 526.971 203.35L535.614 218.715C536.574 220.636 538.975 221.116 540.895 220.156L604.276 183.664C606.196 182.704 606.677 180.303 605.716 178.382L596.593 162.057C596.593 159.656 594.193 159.176 592.272 160.137ZM704.148 79.9507L666.696 93.395L689.263 34.336C689.743 33.3757 689.743 32.4154 689.263 31.4551L682.061 11.7688C681.101 9.36799 678.7 8.40768 676.779 9.36799L604.756 35.2963C602.355 36.2566 601.395 38.6574 602.355 40.578L609.558 59.7842C610.518 62.185 612.919 63.1453 614.839 62.185L647.97 50.1811L625.403 111.161C624.923 112.121 624.923 113.081 625.403 114.042L632.125 132.768C633.085 135.168 635.486 136.129 637.407 135.168L714.231 107.32C716.632 106.359 717.592 103.958 716.632 102.038L709.43 82.3515C708.95 80.4309 706.549 78.9904 704.148 79.9507Z" fill="#42ADE2"/>
<defs>
<linearGradient id="paint0_linear_100_3" x1="212" y1="259" x2="212" y2="451" gradientUnits="userSpaceOnUse">
<stop stop-color="#C6A598"/>
<stop offset="1" stop-color="#BE8D78"/>
</linearGradient>
</defs>
</svg>
