<svg width="710" height="1077" viewBox="0 0 710 1077" fill="none" xmlns="http://www.w3.org/2000/svg">
<g filter="url(#filter0_d_54_6330)">
<path d="M504.782 634.859C511.262 682.819 557.704 744.584 587.98 741.809C618.256 739.035 627.623 736.31 636.437 733.254" stroke="#AEE196" stroke-width="100" stroke-linecap="round"/>
</g>
<ellipse cx="304" cy="981.65" rx="51" ry="94.5" fill="#AEE196"/>
<ellipse cx="512" cy="959.65" rx="51" ry="94.5" fill="#AEE196"/>
<g filter="url(#filter1_d_54_6330)">
<ellipse cx="170" cy="834.65" rx="45" ry="43.5" fill="#CEA77A"/>
<rect x="101" y="575.506" width="201" height="315" rx="94" transform="rotate(-8.10992 101 575.506)" fill="#CEA77A"/>
<path d="M147 623.15L98 695.65" stroke="#CEA77A" stroke-width="50" stroke-linecap="round"/>
</g>
<path d="M127.086 867.543C192.382 910.94 217.84 857.424 224.784 852.084C226.072 851.094 227.249 853.248 228.495 854.29L282.909 899.79C285.323 901.808 286.35 905.049 285.401 908.048C262.605 980.024 181.682 1046.93 22.8316 797.752C18.0593 790.266 24.9075 784.403 31.3209 790.541C52.6636 810.969 83.7522 838.743 127.086 867.543Z" fill="#AEE196" stroke="#AEE196" stroke-width="20" stroke-linecap="round"/>
<path d="M179.257 861.959C180.416 858.941 184.575 858.657 186.134 861.49L196.394 880.133C197.733 882.566 196.095 885.567 193.324 885.756L175.433 886.978C172.662 887.167 170.631 884.417 171.627 881.824L179.257 861.959Z" fill="#68834D"/>
<path d="M162.607 859.183C164.53 856.584 168.613 857.42 169.36 860.565L174.272 881.271C174.913 883.973 172.533 886.428 169.812 885.871L152.244 882.273C149.523 881.716 148.3 878.523 149.951 876.29L162.607 859.183Z" fill="#68834D"/>
<path d="M144.385 852.342C146.772 850.161 150.618 851.766 150.746 854.996L151.587 876.26C151.697 879.035 148.889 880.987 146.326 879.917L129.777 873.01C127.214 871.94 126.627 868.572 128.677 866.698L144.385 852.342Z" fill="#68834D"/>
<path d="M127.169 842.989C129.934 841.312 133.395 843.634 132.893 846.828L129.59 867.85C129.159 870.594 126.026 871.963 123.719 870.416L108.826 860.427C106.52 858.88 106.598 855.462 108.973 854.022L127.169 842.989Z" fill="#68834D"/>
<path d="M111.707 828.815C114.664 827.509 117.798 830.257 116.89 833.359L110.907 853.781C110.126 856.447 106.843 857.401 104.755 855.57L91.2721 843.747C89.1838 841.916 89.7013 838.537 92.2418 837.414L111.707 828.815Z" fill="#68834D"/>
<path d="M93.8272 816.155C96.8668 815.054 99.8056 818.01 98.6868 821.043L91.3224 841.008C90.3613 843.614 87.0206 844.342 85.0624 842.372L72.4191 829.655C70.4609 827.686 71.2082 824.35 73.8195 823.403L93.8272 816.155Z" fill="#68834D"/>
<path d="M77.8272 798.155C80.8668 797.054 83.8056 800.01 82.6868 803.043L75.3224 823.008C74.3613 825.614 71.0206 826.342 69.0624 824.372L56.4191 811.655C54.4609 809.686 55.2082 806.35 57.8195 805.403L77.8272 798.155Z" fill="#68834D"/>
<path d="M63.879 783.302C67.0208 782.488 69.6707 785.733 68.2457 788.649L58.461 808.67C57.2726 811.102 53.9952 811.547 52.2013 809.52L39.6094 795.293C37.729 793.168 38.7558 789.807 41.5024 789.096L63.879 783.302Z" fill="#68834D"/>
<path d="M196.5 883.65C176.333 892.65 115.3 885.45 40.5 792.65" stroke="#68834D" stroke-width="4"/>
<g filter="url(#filter2_d_54_6330)">
<path d="M214.208 583.928C222.627 489.242 322.561 431.698 408.678 471.948L488.387 509.203C531.069 529.152 560.506 569.632 566.328 616.385L593.83 837.22C604.011 918.968 540.26 991.15 457.88 991.15H327.722C247.269 991.15 184.135 922.153 191.26 842.017L214.208 583.928Z" fill="#AEE196"/>
</g>
<path d="M287.236 139.52C288.331 124.21 306.188 116.451 318.127 126.096L346.08 148.679C357.182 157.647 354.802 175.196 341.712 180.884L311.194 194.145C298.104 199.833 283.651 189.598 284.67 175.363L287.236 139.52Z" fill="#68834D"/>
<path d="M356.247 131.427C364.802 118.683 384.154 120.818 389.726 135.119L402.772 168.603C407.953 181.901 397.171 195.95 382.985 194.386L349.91 190.738C335.725 189.173 328.264 173.111 336.218 161.262L356.247 131.427Z" fill="#68834D"/>
<path d="M223.102 175.047C221.106 159.829 237.044 148.647 250.675 155.702L282.588 172.221C295.262 178.782 296.449 196.452 284.766 204.649L257.526 223.76C245.843 231.956 229.632 224.827 227.775 210.677L223.102 175.047Z" fill="#68834D"/>
<path d="M170.495 236.889C163.381 223.289 174.493 207.303 189.72 209.233L225.37 213.751C239.528 215.545 246.728 231.726 238.582 243.445L219.59 270.767C211.444 282.486 193.769 281.376 187.153 268.73L170.495 236.889Z" fill="#68834D"/>
<path d="M137.726 315.627C125.949 305.784 130.1 286.762 144.907 282.719L179.573 273.255C193.341 269.496 206.183 281.691 203.14 295.635L196.046 328.145C193.004 342.088 176.248 347.825 165.298 338.672L137.726 315.627Z" fill="#68834D"/>
<path d="M136.311 395.879C122.148 389.964 120.481 370.566 133.426 362.321L163.736 343.017C175.774 335.351 191.651 343.197 192.873 357.416L195.722 390.569C196.944 404.788 182.639 415.228 169.47 409.728L136.311 395.879Z" fill="#68834D"/>
<path d="M155.06 468.759C139.744 467.767 131.864 449.963 141.429 437.959L163.822 409.855C172.716 398.693 190.281 400.955 196.057 414.005L209.523 444.434C215.299 457.484 205.162 472.006 190.92 471.083L155.06 468.759Z" fill="#68834D"/>
<path d="M194.029 532.374C178.857 534.699 167.333 519.007 174.091 505.227L189.915 472.963C196.2 460.15 213.84 458.58 222.288 470.083L241.984 496.902C250.432 508.405 243.656 524.768 229.549 526.93L194.029 532.374Z" fill="#68834D"/>
<ellipse cx="376" cy="364.15" rx="197" ry="205" fill="#AEE196"/>
<path d="M236.585 472.438C223.653 410.342 271.056 352.051 334.484 352.051H572.1C639.972 352.051 688.127 418.222 667.254 482.805L658.937 508.537C645.093 551.369 604.338 579.673 559.368 577.686L345.99 568.255C329.583 567.529 313.607 562.775 299.473 554.41L272 538.15C255.205 524.908 243.61 506.174 239.25 485.236L236.585 472.438Z" fill="#AEE196"/>
<ellipse cx="532" cy="326.65" rx="19" ry="31.5" transform="rotate(-6.79216 532 326.65)" fill="black"/>
<ellipse cx="403.382" cy="353.676" rx="19" ry="31.5" transform="rotate(-6.79216 403.382 353.676)" fill="black"/>
<ellipse cx="650.69" cy="414.325" rx="4" ry="11.5" transform="rotate(-19.9899 650.69 414.325)" fill="#7AA068"/>
<ellipse cx="635.69" cy="416.325" rx="4" ry="11.5" transform="rotate(-19.9899 635.69 416.325)" fill="#7AA068"/>
<ellipse cx="329.79" cy="425.15" rx="21.6" ry="14.4" transform="rotate(-27.1287 329.79 425.15)" fill="#D87A8B"/>
<mask id="mask0_54_6330" style="mask-type:alpha" maskUnits="userSpaceOnUse" x="587" y="454" width="59" height="43">
<path d="M619.088 493.328C626.145 492.366 632.401 489.663 636.801 485.938C641.174 482.235 643.977 477.251 643.244 471.87C642.511 466.49 638.477 462.438 633.273 460.04C628.037 457.627 621.285 456.696 614.229 457.657C607.173 458.618 600.916 461.322 596.516 465.047C592.144 468.75 589.34 473.734 590.073 479.114C590.806 484.495 594.841 488.547 600.045 490.945C605.28 493.358 612.032 494.289 619.088 493.328Z" stroke="black" stroke-width="5"/>
</mask>
<g mask="url(#mask0_54_6330)">
<rect x="575.541" y="480.956" width="88.055" height="28.2566" transform="rotate(-7.75802 575.541 480.956)" fill="black"/>
</g>
<path d="M215 581.923C229.667 567.757 266.3 547.923 295.5 581.923C323.659 614.711 320.137 643.06 316.412 663.873C316.141 665.391 315.733 666.878 315.202 668.325L281.5 760.15L270.5 786.15" stroke="#CEA77A" stroke-width="50" stroke-linecap="round"/>
<g filter="url(#filter3_d_54_6330)">
<path d="M248 635.15C223.667 676.983 222.4 754.25 248 770.65C273.6 787.05 282.667 790.65 291.5 793.65" stroke="#AEE196" stroke-width="100" stroke-linecap="round"/>
</g>
<mask id="mask1_54_6330" style="mask-type:alpha" maskUnits="userSpaceOnUse" x="95" y="85" width="465" height="408">
<ellipse cx="232.558" cy="203.185" rx="232.558" ry="203.185" transform="matrix(0.915513 -0.402289 0.454293 0.890852 22.0942 201.656)" fill="#D9D9D9"/>
</mask>
<g mask="url(#mask1_54_6330)">
<rect width="572.941" height="348.639" rx="80" transform="matrix(0.916164 -0.400804 0.45263 0.891698 -50.1118 110.47)" fill="#D40A0A"/>
</g>
<path d="M144.197 377.441L594 176.15" stroke="#D40A0A" stroke-width="60" stroke-linecap="round"/>
<ellipse cx="149.309" cy="172.004" rx="27.3101" ry="7.5" transform="rotate(-49.5567 149.309 172.004)" fill="#BB0606"/>
<mask id="mask2_54_6330" style="mask-type:alpha" maskUnits="userSpaceOnUse" x="190" y="458" width="405" height="534">
<path d="M214.208 583.928C222.627 489.242 322.561 431.698 408.678 471.948L488.387 509.203C531.069 529.152 560.506 569.632 566.328 616.385L593.83 837.22C604.011 918.968 540.26 991.15 457.88 991.15H327.722C247.269 991.15 184.135 922.153 191.26 842.017L214.208 583.928Z" fill="#AEE196"/>
</mask>
<g mask="url(#mask2_54_6330)">
<ellipse cx="578.723" cy="731.81" rx="102.018" ry="147.401" transform="rotate(-1.87501 578.723 731.81)" fill="#EAD2AD"/>
</g>
<defs>
<filter id="filter0_d_54_6330" x="450.776" y="584.854" width="239.675" height="215.051" filterUnits="userSpaceOnUse" color-interpolation-filters="sRGB">
<feFlood flood-opacity="0" result="BackgroundImageFix"/>
<feColorMatrix in="SourceAlpha" type="matrix" values="0 0 0 0 0 0 0 0 0 0 0 0 0 0 0 0 0 0 127 0" result="hardAlpha"/>
<feOffset dy="4"/>
<feGaussianBlur stdDeviation="2"/>
<feComposite in2="hardAlpha" operator="out"/>
<feColorMatrix type="matrix" values="0 0 0 0 0.407843 0 0 0 0 0.513726 0 0 0 0 0.301961 0 0 0 0.5 0"/>
<feBlend mode="normal" in2="BackgroundImageFix" result="effect1_dropShadow_54_6330"/>
<feBlend mode="normal" in="SourceGraphic" in2="effect1_dropShadow_54_6330" result="shape"/>
</filter>
<filter id="filter1_d_54_6330" x="68.9976" y="559.459" width="267.121" height="326.691" filterUnits="userSpaceOnUse" color-interpolation-filters="sRGB">
<feFlood flood-opacity="0" result="BackgroundImageFix"/>
<feColorMatrix in="SourceAlpha" type="matrix" values="0 0 0 0 0 0 0 0 0 0 0 0 0 0 0 0 0 0 127 0" result="hardAlpha"/>
<feOffset dy="4"/>
<feGaussianBlur stdDeviation="2"/>
<feComposite in2="hardAlpha" operator="out"/>
<feColorMatrix type="matrix" values="0 0 0 0 0 0 0 0 0 0 0 0 0 0 0 0 0 0 0.25 0"/>
<feBlend mode="normal" in2="BackgroundImageFix" result="effect1_dropShadow_54_6330"/>
<feBlend mode="normal" in="SourceGraphic" in2="effect1_dropShadow_54_6330" result="shape"/>
</filter>
<filter id="filter2_d_54_6330" x="186.711" y="458.937" width="412.189" height="540.213" filterUnits="userSpaceOnUse" color-interpolation-filters="sRGB">
<feFlood flood-opacity="0" result="BackgroundImageFix"/>
<feColorMatrix in="SourceAlpha" type="matrix" values="0 0 0 0 0 0 0 0 0 0 0 0 0 0 0 0 0 0 127 0" result="hardAlpha"/>
<feOffset dy="4"/>
<feGaussianBlur stdDeviation="2"/>
<feComposite in2="hardAlpha" operator="out"/>
<feColorMatrix type="matrix" values="0 0 0 0 0.407843 0 0 0 0 0.513726 0 0 0 0 0.301961 0 0 0 0.25 0"/>
<feBlend mode="normal" in2="BackgroundImageFix" result="effect1_dropShadow_54_6330"/>
<feBlend mode="normal" in="SourceGraphic" in2="effect1_dropShadow_54_6330" result="shape"/>
</filter>
<filter id="filter3_d_54_6330" x="175.272" y="585.142" width="170.242" height="266.522" filterUnits="userSpaceOnUse" color-interpolation-filters="sRGB">
<feFlood flood-opacity="0" result="BackgroundImageFix"/>
<feColorMatrix in="SourceAlpha" type="matrix" values="0 0 0 0 0 0 0 0 0 0 0 0 0 0 0 0 0 0 127 0" result="hardAlpha"/>
<feOffset dy="4"/>
<feGaussianBlur stdDeviation="2"/>
<feComposite in2="hardAlpha" operator="out"/>
<feColorMatrix type="matrix" values="0 0 0 0 0.407843 0 0 0 0 0.513726 0 0 0 0 0.301961 0 0 0 0.5 0"/>
<feBlend mode="normal" in2="BackgroundImageFix" result="effect1_dropShadow_54_6330"/>
<feBlend mode="normal" in="SourceGraphic" in2="effect1_dropShadow_54_6330" result="shape"/>
</filter>
</defs>
</svg>
